# xmcd CD database file
#
# Track frame offsets:
#	150
#	17625
#	32100
#	50649
#	62049
#	74767
#	84201
#	97008
#	107208
#	118794
#
# Disc length: 1758 seconds
#
# Revision: 2
# Processed by: cddbd v1.5.2PL0 Copyright (c) Steve Scherf et al.
# Submitted via: CDex 1.50
#
DISCID=8b06dc0a
DTITLE=3 Dayz Whizkey - Devil And The Deep Blue See
DYEAR=2012
DGENRE=Blues Rock
TTITLE0=Devil And The Deep Blue See
TTITLE1=Blood
TTITLE2=Superstition
TTITLE3=The Wolf
TTITLE4=Clouds
TTITLE5=Reason For My Blues
TTITLE6=Whizkey Train
TTITLE7=3 Dayz Whizkey
TTITLE8=Sheila
TTITLE9=Greenlight Girl
EXTD=YEAR: 2012
EXTT0=
EXTT1=
EXTT2=
EXTT3=
EXTT4=
EXTT5=
EXTT6=
EXTT7=
EXTT8=
EXTT9=
PLAYORDER=
